<svg width="69" height="27" viewBox="0 0 69 27" fill="none" xmlns="http://www.w3.org/2000/svg">
<path fill-rule="evenodd" clip-rule="evenodd" d="M4.53743 13.7019H8.12317C9.48315 13.7019 10.2994 13.0294 10.2994 11.8589C10.2994 10.6884 9.43384 9.991 8.12317 9.991H4.53743V13.7019ZM4.53743 6.75584H7.8483C8.93541 6.75584 9.6272 6.18178 9.6272 5.2585C9.6272 4.28512 8.93541 3.71098 7.8483 3.71098H4.53743V6.75584ZM0.113281 17.4128V0.0952148H8.49463C11.6383 0.0952148 13.8484 1.62912 13.8484 4.47414C13.8484 6.15622 12.8907 7.34379 11.8346 7.8387C12.6698 8.03653 13.431 8.53144 14.0942 9.34781C14.7572 10.164 15.1011 11.1784 15.1011 12.4402C15.1011 13.9244 14.5362 15.1368 13.4065 16.052C12.3013 16.9674 10.8032 17.4128 8.96132 17.4128H0.113281Z" fill="white"/>
<path fill-rule="evenodd" clip-rule="evenodd" d="M21.0388 3.81602H16.6965C16.2441 3.81602 15.8774 3.45894 15.8774 3.0187V0.833303C15.8774 0.393137 16.2441 0.0361328 16.6965 0.0361328H29.8298C30.2822 0.0361328 30.6488 0.393137 30.6488 0.833303V3.0187C30.6488 3.45894 30.2822 3.81602 29.8298 3.81602H25.4629V16.589C25.4629 17.0294 25.0962 17.3861 24.6438 17.3861H21.8579C21.4056 17.3861 21.0388 17.0294 21.0388 16.589V3.81602Z" fill="white"/>
<path fill-rule="evenodd" clip-rule="evenodd" d="M33.963 14.9755C32.1443 13.3487 31.2349 11.2675 31.2349 8.70775C31.2349 6.14813 32.1443 4.06692 33.9383 2.44007C35.7573 0.813306 38.043 0 40.7957 0C41.9789 0 43.0838 0.165547 44.1196 0.505718C44.7955 0.727662 45.2443 1.35347 45.2443 2.04785V4.21137C45.2443 4.63796 44.7879 4.9215 44.3921 4.73842C43.2862 4.22688 42.1119 3.97104 40.8449 3.97104C39.3947 3.97104 38.1905 4.42571 37.2318 5.31085C36.2733 6.19584 35.7817 7.34419 35.7817 8.70775C35.7817 10.0953 36.2733 11.2437 37.2565 12.1288C38.2641 13.0138 39.5176 13.4445 41.0169 13.4445C42.4379 13.4445 43.6639 13.167 44.7065 12.6236C45.0837 12.4268 45.5392 12.6917 45.5392 13.1082V15.3123C45.5392 15.987 45.1059 16.5909 44.4541 16.8209C43.3395 17.2139 42.1282 17.4156 40.8202 17.4156C38.0674 17.4156 35.7817 16.6023 33.963 14.9755" fill="white"/>
<path fill-rule="evenodd" clip-rule="evenodd" d="M1.79395 25.1075H2.22011C2.46061 25.1075 2.63811 25.0453 2.75287 24.9206C2.86762 24.7961 2.92505 24.6059 2.92505 24.3493V22.3313C2.92505 22.2638 2.94959 22.2058 2.99878 22.1578C3.04796 22.1097 3.1071 22.0859 3.17636 22.0859H3.6735C3.74638 22.0859 3.8074 22.1097 3.85658 22.1578C3.90577 22.2058 3.93031 22.2638 3.93031 22.3313V24.3441C3.93031 24.821 3.7874 25.1903 3.5015 25.4519C3.21542 25.7136 2.79741 25.8442 2.24749 25.8442H1.76665C1.21655 25.8442 0.798551 25.7136 0.512644 25.4519C0.226651 25.1903 0.0837402 24.821 0.0837402 24.3441V22.3313C0.0837402 22.2638 0.108288 22.2058 0.15747 22.1578C0.206652 22.1097 0.267679 22.0859 0.340465 22.0859H0.837777C0.906872 22.0859 0.966096 22.1097 1.01536 22.1578C1.06446 22.2058 1.08909 22.2638 1.08909 22.3313V24.3493C1.08909 24.6059 1.14643 24.7961 1.26127 24.9206C1.37595 25.0453 1.55353 25.1075 1.79395 25.1075" fill="white"/>
<path fill-rule="evenodd" clip-rule="evenodd" d="M5.91839 22.0859H6.42103C6.4903 22.0859 6.54952 22.1098 6.59862 22.1579C6.6478 22.206 6.67243 22.2658 6.67243 22.3367V25.0862H8.99454C9.06372 25.0862 9.12294 25.1104 9.17221 25.1584C9.22131 25.2064 9.24594 25.2643 9.24594 25.3318V25.5775C9.24594 25.645 9.22131 25.7028 9.17221 25.751C9.12294 25.7989 9.06372 25.8231 8.99454 25.8231H5.91839C5.84913 25.8231 5.7899 25.7999 5.74089 25.7536C5.69163 25.7074 5.66699 25.6505 5.66699 25.5828V22.3367C5.66699 22.2658 5.69163 22.206 5.74089 22.1579C5.7899 22.1098 5.84913 22.0859 5.91839 22.0859" fill="white"/>
<path fill-rule="evenodd" clip-rule="evenodd" d="M9.9271 22.0859H13.3148C13.3876 22.0859 13.4477 22.1091 13.4951 22.1552C13.5424 22.2016 13.5661 22.2603 13.5661 22.3316V22.5771C13.5661 22.6483 13.5424 22.707 13.4951 22.7532C13.4477 22.7996 13.3876 22.8227 13.3148 22.8227H12.1236V25.5828C12.1236 25.6505 12.099 25.7074 12.0499 25.7536C12.0007 25.7999 11.9415 25.8231 11.8723 25.8231H11.3696C11.3003 25.8231 11.2413 25.7999 11.1921 25.7536C11.1429 25.7074 11.1182 25.6505 11.1182 25.5828V22.8227H9.9271C9.85423 22.8227 9.79414 22.7996 9.74685 22.7532C9.69947 22.707 9.67578 22.6483 9.67578 22.5771V22.3316C9.67578 22.2603 9.69947 22.2016 9.74685 22.1552C9.79414 22.1091 9.85423 22.0859 9.9271 22.0859" fill="white"/>
<path fill-rule="evenodd" clip-rule="evenodd" d="M15.0298 25.5827V22.3313C15.0298 22.2638 15.0544 22.2058 15.1036 22.1578C15.1527 22.1097 15.2118 22.0859 15.2811 22.0859H15.7783C15.8512 22.0859 15.9122 22.1097 15.9614 22.1578C16.0105 22.2058 16.0351 22.2638 16.0351 22.3313V25.5774C16.0351 25.645 16.0096 25.7028 15.9587 25.7509C15.9076 25.7988 15.8475 25.8228 15.7783 25.8228H15.2811C15.2118 25.8228 15.1527 25.7999 15.1036 25.7536C15.0544 25.7072 15.0298 25.6505 15.0298 25.5827" fill="white"/>
<path fill-rule="evenodd" clip-rule="evenodd" d="M20.4598 25.823H20.0773C20.008 25.823 19.9425 25.8001 19.8807 25.7538C19.8186 25.7074 19.775 25.6522 19.7495 25.588L18.8096 23.0257V25.5722C18.8096 25.6434 18.7851 25.7028 18.736 25.7511C18.6868 25.799 18.6275 25.823 18.5584 25.823H18.0775C18.0083 25.823 17.9491 25.799 17.9 25.7511C17.8508 25.7028 17.8262 25.6434 17.8262 25.5722V22.3369C17.8262 22.2657 17.8499 22.2059 17.8972 22.1581C17.9445 22.1099 18.0028 22.0859 18.0721 22.0859H19.1595C19.2286 22.0859 19.2942 22.1099 19.3561 22.1581C19.418 22.2059 19.4599 22.2639 19.4817 22.3315L20.2685 24.5577L21.0554 22.3315C21.0772 22.2639 21.1191 22.2059 21.1811 22.1581C21.2429 22.1099 21.3085 22.0859 21.3777 22.0859H22.4651C22.5342 22.0859 22.5926 22.1099 22.6399 22.1581C22.6872 22.2059 22.7111 22.2657 22.7111 22.3369V25.5722C22.7111 25.6434 22.6863 25.7028 22.6372 25.7511C22.588 25.799 22.5288 25.823 22.4597 25.823H21.9788C21.9096 25.823 21.8503 25.799 21.8012 25.7511C21.7521 25.7028 21.7275 25.6434 21.7275 25.5722V23.0257L20.7876 25.588C20.7621 25.6522 20.7185 25.7074 20.6565 25.7538C20.5945 25.8001 20.5289 25.823 20.4598 25.823" fill="white"/>
<path fill-rule="evenodd" clip-rule="evenodd" d="M25.8246 23.3458L25.5897 24.1838H27.289V22.8227H26.5296C26.3582 22.8227 26.209 22.8697 26.0814 22.9639C25.9539 23.0584 25.8683 23.1855 25.8246 23.3458M24.1854 25.5827L24.8575 23.1001C25.0396 22.4241 25.6297 22.0859 26.6278 22.0859H28.0648C28.1304 22.0859 28.1851 22.1098 28.2288 22.1578C28.2725 22.2058 28.2943 22.2618 28.2943 22.326V25.5827C28.2943 25.6503 28.2697 25.7072 28.2205 25.7536C28.1715 25.7999 28.1121 25.8228 28.043 25.8228H27.5403C27.4675 25.8228 27.4072 25.7999 27.36 25.7536C27.3126 25.7072 27.289 25.6485 27.289 25.5773V24.9206H25.3931L25.2126 25.5773C25.1944 25.6485 25.1543 25.7072 25.0925 25.7536C25.0304 25.7999 24.9648 25.8228 24.8958 25.8228H24.3712C24.302 25.8228 24.2492 25.7999 24.2128 25.7536C24.1763 25.7072 24.1671 25.6503 24.1854 25.5827" fill="white"/>
<path fill-rule="evenodd" clip-rule="evenodd" d="M30.0092 22.0859H33.3968C33.4697 22.0859 33.5298 22.1091 33.5771 22.1552C33.6244 22.2016 33.6482 22.2603 33.6482 22.3316V22.5771C33.6482 22.6483 33.6244 22.707 33.5771 22.7532C33.5298 22.7996 33.4697 22.8227 33.3968 22.8227H32.2057V25.5828C32.2057 25.6505 32.1811 25.7074 32.1319 25.7536C32.0828 25.7999 32.0235 25.8231 31.9543 25.8231H31.4517C31.3824 25.8231 31.3234 25.7999 31.2741 25.7536C31.2249 25.7074 31.2003 25.6505 31.2003 25.5828V22.8227H30.0092C29.9363 22.8227 29.8762 22.7996 29.8289 22.7532C29.7816 22.707 29.7578 22.6483 29.7578 22.5771V22.3316C29.7578 22.2603 29.7816 22.2016 29.8289 22.1552C29.8762 22.1091 29.9363 22.0859 30.0092 22.0859" fill="white"/>
<path fill-rule="evenodd" clip-rule="evenodd" d="M36.7673 25.1075H37.1936C37.434 25.1075 37.6115 25.0453 37.7263 24.9206C37.8411 24.7961 37.8984 24.6059 37.8984 24.3493V22.3313C37.8984 22.2638 37.923 22.2058 37.9722 22.1578C38.0213 22.1097 38.0806 22.0859 38.1498 22.0859H38.647C38.7198 22.0859 38.7809 22.1097 38.83 22.1578C38.8792 22.2058 38.9038 22.2638 38.9038 22.3313V24.3441C38.9038 24.821 38.7608 25.1903 38.4749 25.4519C38.1889 25.7136 37.7708 25.8442 37.2209 25.8442H36.74C36.1899 25.8442 35.772 25.7136 35.486 25.4519C35.2 25.1903 35.0571 24.821 35.0571 24.3441V22.3313C35.0571 22.2638 35.0817 22.2058 35.1309 22.1578C35.1801 22.1097 35.2411 22.0859 35.3139 22.0859H35.8112C35.8803 22.0859 35.9395 22.1097 35.9888 22.1578C36.0379 22.2058 36.0625 22.2638 36.0625 22.3313V24.3493C36.0625 24.6059 36.1198 24.7961 36.2347 24.9206C36.3494 25.0453 36.5269 25.1075 36.7673 25.1075" fill="white"/>
<path fill-rule="evenodd" clip-rule="evenodd" d="M43.2741 25.823H42.8915C42.8222 25.823 42.7567 25.8001 42.6949 25.7538C42.6328 25.7074 42.5892 25.6522 42.5637 25.588L41.6238 23.0257V25.5722C41.6238 25.6434 41.5993 25.7028 41.5502 25.7511C41.501 25.799 41.4417 25.823 41.3726 25.823H40.8917C40.8225 25.823 40.7633 25.799 40.7142 25.7511C40.665 25.7028 40.6404 25.6434 40.6404 25.5722V22.3369C40.6404 22.2657 40.6641 22.2059 40.7114 22.1581C40.7587 22.1099 40.817 22.0859 40.8863 22.0859H41.9737C42.0428 22.0859 42.1084 22.1099 42.1703 22.1581C42.2322 22.2059 42.2741 22.2639 42.2959 22.3315L43.0827 24.5577L43.8696 22.3315C43.8914 22.2639 43.9333 22.2059 43.9953 22.1581C44.0571 22.1099 44.1228 22.0859 44.1919 22.0859H45.2793C45.3485 22.0859 45.4068 22.1099 45.4541 22.1581C45.5014 22.2059 45.5253 22.2657 45.5253 22.3369V25.5722C45.5253 25.6434 45.5005 25.7028 45.4514 25.7511C45.4022 25.799 45.343 25.823 45.2739 25.823H44.793C44.7238 25.823 44.6645 25.799 44.6154 25.7511C44.5663 25.7028 44.5417 25.6434 44.5417 25.5722V23.0257L43.6018 25.588C43.5763 25.6522 43.5327 25.7074 43.4707 25.7538C43.4087 25.8001 43.3432 25.823 43.2741 25.823" fill="white"/>
<mask id="mask0" mask-type="alpha" maskUnits="userSpaceOnUse" x="50" y="22" width="19" height="4">
<path fill-rule="evenodd" clip-rule="evenodd" d="M50.4562 22.0566C50.2359 22.0566 50.0574 22.2313 50.0574 22.4468V22.4468V25.4828C50.0574 25.6983 50.2359 25.873 50.4562 25.873V25.873H68.3795C68.5999 25.873 68.7784 25.6983 68.7784 25.4828V25.4828V22.4468C68.7784 22.2313 68.5999 22.0566 68.3795 22.0566V22.0566H50.4562Z" fill="white"/>
</mask>
<g mask="url(#mask0)">
<path fill-rule="evenodd" clip-rule="evenodd" d="M50.4562 22.0566C50.2359 22.0566 50.0574 22.2313 50.0574 22.4468V22.4468V25.4828C50.0574 25.6983 50.2359 25.873 50.4562 25.873V25.873H68.3795C68.5999 25.873 68.7784 25.6983 68.7784 25.4828V25.4828V22.4468C68.7784 22.2313 68.5999 22.0566 68.3795 22.0566V22.0566H50.4562Z" fill="url(#paint0_linear)"/>
</g>
<mask id="mask1" mask-type="alpha" maskUnits="userSpaceOnUse" x="50" y="0" width="19" height="18">
<path fill-rule="evenodd" clip-rule="evenodd" d="M64.7866 0.0361328C63.9008 0.0361328 63.1829 0.734559 63.1829 1.59611V1.59611V8.62436C63.1829 11.214 61.6274 12.465 59.3842 12.465V12.465C57.2006 12.465 55.5854 11.214 55.5854 8.62436V8.62436V1.59611C55.5854 0.734559 54.8674 0.0361328 53.9817 0.0361328V0.0361328H51.8048C50.9192 0.0361328 50.2012 0.734559 50.2012 1.59611V1.59611V8.36235C50.2012 11.1849 51.0687 13.3961 52.8035 14.9673V14.9673C54.5383 16.5095 56.7221 17.2952 59.3842 17.2952V17.2952C62.0464 17.2952 64.2298 16.5095 65.9647 14.9673V14.9673C67.6907 13.4043 68.5581 11.2077 68.567 8.40588V8.40588V1.58204C68.5593 0.726982 67.8443 0.0361328 66.9634 0.0361328V0.0361328H64.7866Z" fill="white"/>
</mask>
<g mask="url(#mask1)">
<path fill-rule="evenodd" clip-rule="evenodd" d="M64.7866 0.0361328C63.9008 0.0361328 63.1829 0.734559 63.1829 1.59611V1.59611V8.62436C63.1829 11.214 61.6274 12.465 59.3842 12.465V12.465C57.2006 12.465 55.5854 11.214 55.5854 8.62436V8.62436V1.59611C55.5854 0.734559 54.8674 0.0361328 53.9817 0.0361328V0.0361328H51.8048C50.9192 0.0361328 50.2012 0.734559 50.2012 1.59611V1.59611V8.36235C50.2012 11.1849 51.0687 13.3961 52.8035 14.9673V14.9673C54.5383 16.5095 56.7221 17.2952 59.3842 17.2952V17.2952C62.0464 17.2952 64.2298 16.5095 65.9647 14.9673V14.9673C67.6907 13.4043 68.5581 11.2077 68.567 8.40588V8.40588V1.58204C68.5593 0.726982 67.8443 0.0361328 66.9634 0.0361328V0.0361328H64.7866Z" fill="url(#paint1_linear)"/>
</g>
<defs>
<linearGradient id="paint0_linear" x1="-18.2883" y1="1.40423" x2="-18.2883" y2="33.0854" gradientUnits="userSpaceOnUse">
<stop stop-color="#FF421D"/>
<stop offset="1" stop-color="#FF0400"/>
</linearGradient>
<linearGradient id="paint1_linear" x1="42.6819" y1="-0.235578" x2="42.6819" y2="31.1559" gradientUnits="userSpaceOnUse">
<stop stop-color="#FF421D"/>
<stop offset="1" stop-color="#FF0400"/>
</linearGradient>
</defs>
</svg>
